<?xml version="1.0" encoding="UTF-8"?>
<svg version="1.1" xmlns="http://www.w3.org/2000/svg" width="512" height="512">
<path d="M0 0 C0.9914091 -0.00307895 0.9914091 -0.00307895 2.00284666 -0.0062201 C4.22120759 -0.01188193 6.43950627 -0.01043386 8.65787315 -0.00901413 C10.26302168 -0.01159824 11.86816956 -0.01461153 13.47331655 -0.01801753 C17.88740007 -0.02608549 22.30146732 -0.02787699 26.71555734 -0.028615 C31.47510162 -0.03046592 36.23463746 -0.03801348 40.99417686 -0.04475021 C51.40337715 -0.05833288 61.81257358 -0.06435822 72.22178125 -0.06876087 C78.7217743 -0.07152355 85.22176585 -0.07576097 91.72175789 -0.08026505 C109.71933524 -0.0924579 127.7169114 -0.102757 145.7144928 -0.10614014 C146.8664184 -0.1063597 148.018344 -0.10657927 149.20517644 -0.10680549 C150.3598556 -0.10702377 151.51453476 -0.10724204 152.7042042 -0.10746694 C155.04401565 -0.1079104 157.38382709 -0.10835697 159.72363853 -0.10880661 C161.46457879 -0.10913875 161.46457879 -0.10913875 163.24068956 -0.10947761 C182.04408384 -0.11342503 200.84743935 -0.1308773 219.65081866 -0.15416613 C238.95729348 -0.17788498 258.26374885 -0.19034224 277.57023847 -0.19150805 C288.40954663 -0.19242454 299.24880428 -0.19817026 310.08809853 -0.21632767 C319.31874497 -0.23173587 328.5493253 -0.23684487 337.77998216 -0.22858956 C342.48814899 -0.22468556 347.19618271 -0.22560052 351.90433311 -0.23964691 C356.21873957 -0.25240067 360.53291309 -0.25117537 364.84731929 -0.2390562 C366.40388507 -0.23710175 367.96046743 -0.24016593 369.51700993 -0.24890056 C385.65137498 -0.33367022 398.21683487 2.7415357 410.250494 13.89314651 C418.41436506 22.70274748 422.44355007 33.91959352 422.45614052 45.80671501 C422.45819315 46.46765441 422.46024579 47.12859381 422.46236062 47.80956167 C422.46802245 50.0279226 422.46657438 52.24622129 422.46515465 54.46458817 C422.46773876 56.06973669 422.47075204 57.67488457 422.47415805 59.28003156 C422.48222601 63.69411508 422.48401751 68.10818233 422.48475552 72.52227235 C422.48660644 77.28181663 422.494154 82.04135247 422.50089073 86.80089188 C422.51447339 97.21009216 422.52049874 107.61928859 422.52490139 118.02849627 C422.52766407 124.52848931 422.53190149 131.02848086 422.53640556 137.5284729 C422.54859842 155.52605025 422.55889752 173.52362642 422.56228065 191.52120781 C422.56250022 192.67313341 422.56271979 193.82505901 422.56294601 195.01189145 C422.56316428 196.16657061 422.56338256 197.32124977 422.56360745 198.51091921 C422.56405092 200.85073066 422.56449748 203.1905421 422.56494713 205.53035355 C422.56516856 206.69098038 422.56538999 207.85160722 422.56561813 209.04740457 C422.56956555 227.85079885 422.58701782 246.65415437 422.61030665 265.45753367 C422.6340255 284.76400849 422.64648276 304.07046386 422.64764857 323.37695348 C422.64856506 334.21626164 422.65431077 345.0555193 422.67246819 355.89481354 C422.68787639 365.12545998 422.69298539 374.35604031 422.68473008 383.58669718 C422.68082607 388.294864 422.68174104 393.00289772 422.69578743 397.71104813 C422.70854119 402.02545458 422.70731589 406.3396281 422.69519672 410.6540343 C422.69324227 412.21060008 422.69630645 413.76718244 422.70504108 415.32372494 C422.78981074 431.45808999 419.71460482 444.02354988 408.562994 456.05720901 C399.75339304 464.22108007 388.536547 468.25026508 376.64942551 468.26285553 C375.98848611 468.26490816 375.32754671 468.2669608 374.64657885 468.26907563 C372.42821792 468.27473746 370.20991923 468.27328939 367.99155235 468.27186966 C366.38640383 468.27445377 364.78125595 468.27746706 363.17610896 468.28087306 C358.76202544 468.28894102 354.34795819 468.29073252 349.93386817 468.29147053 C345.17432389 468.29332145 340.41478804 468.30086901 335.65524864 468.30760574 C325.24604836 468.32118841 314.83685192 468.32721375 304.42764425 468.3316164 C297.92765121 468.33437908 291.42765966 468.3386165 284.92766762 468.34312057 C266.93009026 468.35531343 248.9325141 468.36561253 230.93493271 468.36899567 C229.78300711 468.36921523 228.63108151 468.3694348 227.44424907 468.36966102 C226.28956991 468.3698793 225.13489075 468.37009757 223.9452213 468.37032247 C221.60540986 468.37076593 219.26559842 468.37121249 216.92578697 468.37166214 C215.18484671 468.37199428 215.18484671 468.37199428 213.40873595 468.37233314 C194.60534167 468.37628056 175.80198615 468.39373283 156.99860685 468.41702166 C137.69213203 468.44074051 118.38567666 468.45319777 99.07918704 468.45436358 C88.23987888 468.45528007 77.40062122 468.46102578 66.56132698 468.4791832 C57.33068054 468.4945914 48.1001002 468.4997004 38.86944334 468.49144509 C34.16127652 468.48754109 29.4532428 468.48845605 24.74509239 468.50250244 C20.43068594 468.5152562 16.11651242 468.5140309 11.80210622 468.50191173 C10.24554044 468.49995728 8.68895808 468.50302146 7.13241558 468.51175609 C-9.00194947 468.59652575 -21.56740937 465.52131983 -33.6010685 454.36970901 C-41.40125514 445.95255846 -45.79470853 434.94833664 -45.80671501 423.54516029 C-45.80876765 422.8816984 -45.81082028 422.2182365 -45.81293511 421.5346697 C-45.81860933 419.30171626 -45.81714734 417.06882441 -45.81572914 414.83586502 C-45.81831254 413.22261726 -45.82132563 411.60937014 -45.82473254 409.99612391 C-45.83280887 405.5550473 -45.83459247 401.11398686 -45.83533001 396.67290378 C-45.83717949 391.88609428 -45.84472634 387.0992932 -45.85146523 382.31248856 C-45.86505402 371.8413147 -45.87107424 361.37014466 -45.87547588 350.89896345 C-45.87823763 344.36129392 -45.88247489 337.82362587 -45.88698006 331.28595734 C-45.89917391 313.18719386 -45.90947269 295.08843157 -45.91285515 276.98966408 C-45.91307471 275.83101657 -45.91329428 274.67236907 -45.9135205 273.47861103 C-45.91373878 272.31717841 -45.91395706 271.15574579 -45.91418195 269.95911825 C-45.91462541 267.6055847 -45.91507198 265.25205115 -45.91552162 262.89851761 C-45.91574305 261.73108173 -45.91596448 260.56364585 -45.91619262 259.36083312 C-45.92014011 240.44676886 -45.93759211 221.53274313 -45.96088114 202.61869375 C-45.9845954 183.20264423 -45.99705705 163.78661404 -45.99822307 144.3705498 C-45.99913984 133.46810154 -46.00489256 122.56570348 -46.02304268 111.66326904 C-46.03844471 102.3787711 -46.04356354 93.09433888 -46.03530458 83.80983059 C-46.03139832 79.07344119 -46.03232648 74.33718412 -46.04636192 69.600811 C-46.05910229 65.26174506 -46.05790211 60.92291085 -46.04577121 56.58384521 C-46.04381444 55.01717321 -46.04689173 53.45048478 -46.05561557 51.88383584 C-46.13813585 36.0580115 -42.84308656 23.99964624 -31.9135685 12.20564651 C-23.10396753 4.04177546 -11.88712149 0.01259045 0 0 Z M139.32471275 107.13142776 C138.711119 107.57099808 138.09752525 108.01056839 137.46533775 108.46345901 C128.72742089 115.17155006 123.75869284 125.57914144 121.32471275 136.13142776 C121.3001832 137.79791391 121.29659547 139.46499829 121.32471275 141.13142776 C120.59059166 141.1104805 119.85647057 141.08953323 119.10010338 141.0679512 C96.93831048 140.51980416 77.42942648 140.98369495 60.26221275 157.00642776 C50.77760889 167.40889652 43.23590933 180.63088675 43.18427086 195.02452469 C43.17856071 195.98312897 43.17285057 196.94173325 43.16696739 197.92938614 C43.16584953 198.9694632 43.16473167 200.00954025 43.16357994 201.0811348 C43.15861504 202.18585632 43.15365013 203.29057785 43.14853477 204.42877579 C43.13393492 208.0822703 43.12711398 211.73572137 43.12158775 215.38924026 C43.11583357 217.9340706 43.11007587 220.47890092 43.1043148 223.02373123 C43.09515214 227.67987082 43.08884997 232.33599743 43.08581805 236.99214375 C43.08134586 243.82069213 43.06383299 250.64903948 43.03481746 257.47752678 C43.01048556 263.41219696 43.00286831 269.34681781 43.0011425 275.28153992 C42.99812529 277.79560183 42.99012842 280.3096631 42.97695732 282.82369232 C42.95979962 286.35106513 42.96180126 289.87795532 42.96826744 293.40535355 C42.95905266 294.43328522 42.94983788 295.46121689 42.94034386 296.520298 C43.02573982 311.47872181 48.82002377 326.33385712 59.32471275 337.13142776 C75.63834048 351.3649511 92.66692849 354.59578839 113.62085533 354.5354805 C115.42930584 354.54119492 117.23775275 354.54816329 119.04619408 354.55627823 C123.92242883 354.57410811 128.79848262 354.57306032 133.67474008 354.56733584 C137.76226216 354.56422865 141.84975026 354.5703535 145.93726748 354.57637459 C155.58963846 354.59038535 165.24192088 354.58888783 174.89429283 354.57747269 C184.813982 354.5659998 194.73340054 354.58006116 204.65305406 354.60686916 C213.20468243 354.62910495 221.75622634 354.63564571 230.30788153 354.62979275 C235.39996654 354.62644017 240.49187822 354.62872404 245.5839386 354.64604378 C250.37680827 354.66163664 255.16928064 354.65742214 259.96213531 354.63873863 C261.70827477 354.63508637 263.45444448 354.63806137 265.2005558 354.64862442 C280.72310975 354.73526572 295.03127972 352.88770822 308.32471275 344.13142776 C309.10201744 343.62998245 309.87932213 343.12853714 310.6801815 342.61189651 C323.05587159 333.85732056 330.6516495 319.8922533 333.32471275 305.13142776 C333.60610625 301.36646214 333.6084552 297.61536919 333.59937096 293.84114456 C333.60448189 292.73598495 333.60959282 291.63082535 333.61485863 290.49217606 C333.62870778 286.85494376 333.62780118 283.21790198 333.625494 279.58064651 C333.6293838 277.0401032 333.63371905 274.49956054 333.63847923 271.95901871 C333.64593164 266.63894143 333.64579674 261.31893339 333.64038658 255.99885941 C333.63435337 249.87424413 333.64664777 243.74985897 333.66795665 237.62528294 C333.68778738 231.7050102 333.69073556 225.78480788 333.68722153 219.86450005 C333.68773306 217.35881701 333.69293916 214.85313017 333.70303345 212.34746742 C333.71544747 208.83476584 333.70857573 205.32258852 333.69702721 201.80989456 C333.70467094 200.78667603 333.71231468 199.76345749 333.72019005 198.70923233 C333.61380833 183.97983202 327.98872351 168.92921801 317.68408775 158.22517776 C302.81451155 145.02965981 287.84652729 140.73297103 268.19971275 141.00642776 C266.9570565 141.0154512 265.71440025 141.02447464 264.43408775 141.03377151 C261.39742271 141.05713048 258.36117422 141.08988493 255.32471275 141.13142776 C255.27645348 140.55062454 255.2281942 139.96982132 255.17847252 139.371418 C253.99672698 126.92138876 248.62528156 116.8150471 239.3833065 108.35408401 C228.32328359 99.57309613 217.03931046 96.82353849 203.187994 96.79549026 C202.03155891 96.78883347 200.87512383 96.78217667 199.68364525 96.77531815 C197.24378605 96.76522619 194.80389944 96.76050005 192.36401939 96.7608223 C188.66619949 96.75646195 184.96958656 96.72013825 181.27197838 96.68220901 C178.88982095 96.67633731 176.50765792 96.67237029 174.125494 96.67049026 C173.03650307 96.65611923 171.94751213 96.6417482 170.82552147 96.62694168 C158.97270111 96.69611771 148.68534349 99.8161317 139.32471275 107.13142776 Z " fill="#000000" transform="translate(67.6752872467041,21.868572235107422)"/>
<path d="M0 0 C1.79464428 -0.00435229 3.5892867 -0.00953715 5.38392639 -0.01548767 C10.2394373 -0.02883433 15.09487016 -0.0294611 19.95039582 -0.02692437 C24.01323431 -0.02585157 28.07605721 -0.03074601 32.13889235 -0.03552979 C41.72965113 -0.04661032 51.32037074 -0.04707078 60.91113281 -0.04101562 C70.78305654 -0.03497846 80.65483764 -0.04728368 90.52673703 -0.06858569 C99.02216172 -0.0862389 107.51754116 -0.09219713 116.0129835 -0.08894795 C121.07814616 -0.08714065 126.1432071 -0.08971578 131.20835304 -0.10366249 C135.97482975 -0.11629661 140.74108526 -0.11424421 145.50755882 -0.1012516 C147.24892631 -0.09889827 148.99030964 -0.1015755 150.73165894 -0.10987473 C164.2377469 -0.16956272 176.3582253 0.37856348 187.27807617 9.2746582 C187.90456055 9.77739258 188.53104492 10.28012695 189.17651367 10.7980957 C196.11598575 17.01028687 200.88053658 26.25465391 201.40950394 35.59549236 C201.41396593 36.79692489 201.41396593 36.79692489 201.41851807 38.02262878 C201.42422821 38.94902161 201.42993835 39.87541443 201.43582153 40.82987976 C201.43749832 42.33624748 201.43749832 42.33624748 201.43920898 43.87304688 C201.44417389 44.94036041 201.44913879 46.00767395 201.45425415 47.10733032 C201.46884985 50.63576912 201.47567395 54.16416293 201.48120117 57.69262695 C201.48695532 60.15017192 201.49271302 62.60771689 201.49847412 65.06526184 C201.50897713 70.21912851 201.5148242 75.37297961 201.51831055 80.52685547 C201.52378982 87.11619323 201.54780897 93.7053238 201.5762825 100.29459667 C201.59494952 105.37252901 201.60011668 110.45041188 201.60164642 115.52837563 C201.60466494 117.95674076 201.61266626 120.38510519 201.6258316 122.81343651 C201.64297461 126.2188814 201.64099134 129.62382579 201.63452148 133.02929688 C201.64373627 134.02342087 201.65295105 135.01754486 201.66244507 136.04179382 C201.59371467 147.64865483 198.24695783 157.0515464 190.16870117 165.47387695 C177.35919574 177.42205357 163.4285214 177.57712961 146.68041992 177.53344727 C144.92326717 177.53616195 143.16611555 177.53972555 141.40896606 177.54406738 C136.6651998 177.55313684 131.92152113 177.54966971 127.17775345 177.54330921 C122.19678778 177.53822091 117.21582926 177.5429485 112.23486328 177.54608154 C103.87262638 177.54971297 95.51042488 177.54494374 87.14819336 177.53540039 C77.50117753 177.52451744 67.85424626 177.5280436 58.20723248 177.5390532 C49.90201694 177.54814958 41.59682676 177.54939987 33.29160786 177.54417586 C28.3411095 177.54106907 23.39065079 177.54061116 18.44015503 177.54724884 C13.78449449 177.55305595 9.12894223 177.5489642 4.4732933 177.53746033 C2.77182062 177.53483166 1.07033871 177.53554789 -0.63113022 177.53998566 C-16.34390845 177.57716734 -29.87238935 176.74809271 -42.03442383 165.6496582 C-48.75591991 158.47176424 -52.82583394 149.36320128 -52.86236572 139.52668762 C-52.86807587 138.6002948 -52.87378601 137.67390198 -52.87966919 136.71943665 C-52.88134598 135.21306892 -52.88134598 135.21306892 -52.88305664 133.67626953 C-52.88802155 132.60895599 -52.89298645 131.54164246 -52.89810181 130.44198608 C-52.9126975 126.91354729 -52.91952161 123.38515347 -52.92504883 119.85668945 C-52.93080298 117.39914448 -52.93656068 114.94159952 -52.94232178 112.48405457 C-52.95282478 107.3301879 -52.95867186 102.1763368 -52.9621582 97.02246094 C-52.96763748 90.43312317 -52.99165663 83.84399261 -53.02013016 77.25471973 C-53.03879717 72.1767874 -53.04396434 67.09890453 -53.04549408 62.02094078 C-53.04851259 59.59257565 -53.05651392 57.16421122 -53.06967926 54.7358799 C-53.08682227 51.33043501 -53.084839 47.92549062 -53.07836914 44.52001953 C-53.08758392 43.52589554 -53.09679871 42.53177155 -53.10629272 41.50752258 C-53.03227048 29.00699998 -48.85821017 19.68232466 -40.47192383 10.5246582 C-29.13742278 -0.23562803 -14.62157705 -0.02345081 0 0 Z M-24.59692383 36.0246582 C-26.30139074 39.43359202 -25.69041706 41.65895014 -24.72192383 45.2746582 C-22.30979766 48.43537525 -20.57055061 49.60072545 -16.72192383 50.2746582 C-14.26003075 50.37002819 -11.82678336 50.41387115 -9.36512756 50.40837097 C-8.62203116 50.41063653 -7.87893476 50.41290208 -7.11332029 50.41523629 C-4.62224332 50.42156865 -2.13122085 50.42074742 0.35986328 50.41992188 C2.14542206 50.42291381 3.9309802 50.42631642 5.71653748 50.43009949 C10.56772474 50.43893944 15.41889437 50.44127758 20.27008891 50.44191527 C24.31841994 50.44286447 28.36674686 50.44654283 32.41507632 50.45008737 C41.96470794 50.45823166 51.51433014 50.4606716 61.06396484 50.45996094 C70.91941764 50.45935991 80.77481574 50.46991675 90.63025469 50.4857046 C99.08894481 50.49877275 107.54761705 50.50414515 116.0063172 50.50350553 C121.05957401 50.50325036 126.11278221 50.50611213 131.16602898 50.51668358 C135.91759948 50.52635252 140.66907475 50.52645201 145.42064857 50.51916695 C147.16495274 50.51811966 148.90926279 50.52049253 150.65355682 50.5265274 C153.03391581 50.53422984 155.41394453 50.52961423 157.79429626 50.52189636 C158.48515617 50.52703993 159.17601607 50.53218349 159.88781112 50.53748292 C165.20750106 50.49934504 168.71461452 49.71468867 172.65307617 46.0871582 C174.575116 43.30191692 174.575116 43.30191692 174.27807617 39.7121582 C173.20316213 36.01714117 172.30078674 34.58614276 169.27807617 32.2746582 C165.76931802 31.10507215 162.61558081 31.12972256 158.96560669 31.13421631 C158.21519761 31.13124519 157.46478853 31.12827406 156.69163978 31.12521291 C154.16982221 31.11652111 151.64805208 31.11501726 149.1262207 31.11352539 C147.32110492 31.1088976 145.51599012 31.10387299 143.71087646 31.09848022 C138.80178442 31.0853515 133.89270605 31.07891049 128.98359919 31.07446957 C125.91794684 31.07153995 122.85229825 31.06743538 119.7866478 31.06296539 C110.19875961 31.04928998 100.61087998 31.03962321 91.02298272 31.0357635 C79.94778976 31.03128077 68.87272009 31.01372308 57.79756463 30.98476291 C49.24123096 30.96316412 40.68493203 30.95306021 32.12857139 30.95172238 C27.01602624 30.95067317 21.90359698 30.94474063 16.79108047 30.92690277 C11.98285855 30.91045298 7.17484003 30.90825152 2.36660004 30.91704178 C0.60132936 30.91781378 -1.16395212 30.91344801 -2.9291954 30.90358353 C-5.33820291 30.89091042 -7.74648493 30.89671518 -10.15548706 30.90716553 C-10.85481098 30.89910912 -11.5541349 30.89105272 -12.27465045 30.88275218 C-17.63344236 30.93716033 -20.73173776 32.4171512 -24.59692383 36.0246582 Z " fill="#000000" transform="translate(181.721923828125,180.725341796875)"/>
<path d="M0 0 C1.02754395 -0.00287018 2.05508789 -0.00574036 3.11376953 -0.00869751 C5.27181555 -0.0107259 7.42988047 -0.00528249 9.58789062 0.00732422 C12.86630888 0.0233949 16.14349449 0.00743296 19.421875 -0.01171875 C21.53125269 -0.0097361 23.64062961 -0.00589198 25.75 0 C26.71695801 -0.00607269 27.68391602 -0.01214539 28.68017578 -0.0184021 C39.46466087 0.09149796 46.95236343 2.5088152 54.73828125 10.0625 C59.59989049 15.37738542 60.8163452 18.9878539 61.875 26.3984375 C29.535 26.3984375 -2.805 26.3984375 -36.125 26.3984375 C-33.793159 15.905153 -30.17629636 9.31077454 -21.125 3.3984375 C-14.09646652 0.61065666 -7.49971635 -0.04709974 0 0 Z " fill="#000000" transform="translate(243.125,136.6015625)"/>
</svg>
